<svg width="123" height="24" viewBox="0 0 123 24" fill="none" xmlns="http://www.w3.org/2000/svg">
<path d="M9.28 20.31C9.45 20.79 8.92999 21.23 8.48999 20.97L5.34 19.18C4.77 18.85 4.42001 18.06 4.54001 17.42L5.48001 12.75C5.59001 12.2 6.35001 12.15 6.54001 12.67L9.28 20.31Z" fill="#F53838"/>
<path d="M18.66 19.18L15.5 20.98C15.06 21.23 14.54 20.8 14.71 20.32L17.46 12.61C17.65 12.09 18.41 12.14 18.52 12.69L19.47 17.42C19.58 18.06 19.23 18.85 18.66 19.18Z" fill="#F53838"/>
<path d="M17.08 7.32001C17.32 7.62001 17.39 8.02001 17.26 8.38001L12.52 21.63C12.35 22.12 11.66 22.12 11.49 21.63L6.74999 8.39001C6.61999 8.03001 6.68999 7.63001 6.92999 7.33001L10.75 2.63001C11.44 1.80001 12.58 1.80001 13.28 2.63001L17.08 7.32001Z" fill="#F53838"/>
<path d="M112.384 18.3C112.252 18.3 112.144 18.258 112.06 18.174C111.976 18.09 111.934 17.982 111.934 17.85V6.14998C111.934 6.01798 111.976 5.90998 112.06 5.82598C112.144 5.74198 112.252 5.69998 112.384 5.69998H114.022C114.202 5.69998 114.334 5.74198 114.418 5.82598C114.502 5.90998 114.556 5.97598 114.58 6.02398L119.386 13.53V6.14998C119.386 6.01798 119.428 5.90998 119.512 5.82598C119.596 5.74198 119.698 5.69998 119.818 5.69998H121.654C121.786 5.69998 121.894 5.74198 121.978 5.82598C122.062 5.90998 122.104 6.01798 122.104 6.14998V17.85C122.104 17.97 122.062 18.078 121.978 18.174C121.894 18.258 121.786 18.3 121.654 18.3H119.998C119.818 18.3 119.686 18.258 119.602 18.174C119.53 18.078 119.476 18.012 119.44 17.976L114.652 10.704V17.85C114.652 17.982 114.61 18.09 114.526 18.174C114.442 18.258 114.334 18.3 114.202 18.3H112.384Z" fill="#101010"/>
<path d="M100.378 18.3C100.246 18.3 100.138 18.258 100.054 18.174C99.9701 18.09 99.9281 17.982 99.9281 17.85V6.14998C99.9281 6.01798 99.9701 5.90998 100.054 5.82598C100.138 5.74198 100.246 5.69998 100.378 5.69998H105.292C106.264 5.69998 107.104 5.84998 107.812 6.14998C108.532 6.44998 109.09 6.90598 109.486 7.51798C109.894 8.11798 110.098 8.86798 110.098 9.76798C110.098 10.68 109.894 11.436 109.486 12.036C109.09 12.624 108.532 13.062 107.812 13.35C107.104 13.638 106.264 13.782 105.292 13.782H102.88V17.85C102.88 17.982 102.838 18.09 102.754 18.174C102.67 18.258 102.562 18.3 102.43 18.3H100.378ZM102.826 11.55H105.202C105.814 11.55 106.288 11.4 106.624 11.1C106.972 10.8 107.146 10.35 107.146 9.74998C107.146 9.22198 106.99 8.78998 106.678 8.45398C106.378 8.11798 105.886 7.94998 105.202 7.94998H102.826V11.55Z" fill="#101010"/>
<path d="M91.277 18.3C91.085 18.3 90.929 18.252 90.809 18.156C90.701 18.048 90.623 17.922 90.575 17.778L86.795 6.23998C86.783 6.17998 86.777 6.12598 86.777 6.07798C86.777 5.98198 86.813 5.89798 86.885 5.82598C86.957 5.74198 87.047 5.69998 87.155 5.69998H89.045C89.225 5.69998 89.363 5.75398 89.459 5.86198C89.567 5.95798 89.633 6.04798 89.657 6.13198L92.465 14.934L95.255 6.13198C95.291 6.04798 95.357 5.95798 95.453 5.86198C95.549 5.75398 95.687 5.69998 95.867 5.69998H97.757C97.865 5.69998 97.955 5.74198 98.027 5.82598C98.099 5.89798 98.135 5.98198 98.135 6.07798C98.135 6.12598 98.129 6.17998 98.117 6.23998L94.337 17.778C94.301 17.922 94.223 18.048 94.103 18.156C93.995 18.252 93.839 18.3 93.635 18.3H91.277Z" fill="#101010"/>
<path d="M81.7052 18.48C81.0332 18.48 80.4572 18.396 79.9772 18.228C79.4972 18.06 79.1072 17.856 78.8072 17.616C78.5072 17.376 78.2792 17.136 78.1232 16.896C77.9792 16.656 77.9012 16.464 77.8892 16.32C77.8772 16.188 77.9192 16.086 78.0152 16.014C78.1112 15.942 78.2072 15.906 78.3032 15.906H79.0952C79.1672 15.906 79.2212 15.918 79.2572 15.942C79.3052 15.954 79.3652 16.002 79.4372 16.086C79.5932 16.254 79.7672 16.422 79.9592 16.59C80.1512 16.758 80.3852 16.896 80.6612 17.004C80.9492 17.112 81.3032 17.166 81.7232 17.166C82.3352 17.166 82.8392 17.052 83.2352 16.824C83.6312 16.584 83.8292 16.236 83.8292 15.78C83.8292 15.48 83.7452 15.24 83.5772 15.06C83.4212 14.88 83.1332 14.718 82.7132 14.574C82.3052 14.43 81.7412 14.28 81.0212 14.124C80.3012 13.956 79.7312 13.752 79.3112 13.512C78.8912 13.26 78.5912 12.966 78.4112 12.63C78.2312 12.282 78.1412 11.892 78.1412 11.46C78.1412 11.016 78.2732 10.59 78.5372 10.182C78.8012 9.76198 79.1852 9.41998 79.6892 9.15598C80.2052 8.89198 80.8472 8.75998 81.6152 8.75998C82.2392 8.75998 82.7732 8.83798 83.2172 8.99398C83.6612 9.14998 84.0272 9.34798 84.3152 9.58798C84.6032 9.81598 84.8192 10.044 84.9632 10.272C85.1072 10.5 85.1852 10.692 85.1972 10.848C85.2092 10.968 85.1732 11.07 85.0892 11.154C85.0052 11.226 84.9092 11.262 84.8012 11.262H84.0452C83.9612 11.262 83.8892 11.244 83.8292 11.208C83.7812 11.172 83.7332 11.13 83.6852 11.082C83.5652 10.926 83.4212 10.77 83.2532 10.614C83.0972 10.458 82.8872 10.332 82.6232 10.236C82.3712 10.128 82.0352 10.074 81.6152 10.074C81.0152 10.074 80.5652 10.2 80.2652 10.452C79.9652 10.704 79.8152 11.022 79.8152 11.406C79.8152 11.634 79.8812 11.838 80.0132 12.018C80.1452 12.198 80.3972 12.36 80.7692 12.504C81.1412 12.648 81.6932 12.804 82.4252 12.972C83.2172 13.128 83.8412 13.338 84.2972 13.602C84.7532 13.866 85.0772 14.172 85.2692 14.52C85.4612 14.868 85.5572 15.27 85.5572 15.726C85.5572 16.23 85.4072 16.692 85.1072 17.112C84.8192 17.532 84.3872 17.868 83.8112 18.12C83.2472 18.36 82.5452 18.48 81.7052 18.48Z" fill="#151515"/>
<path d="M72.119 18.48C70.883 18.48 69.899 18.102 69.167 17.346C68.435 16.578 68.033 15.534 67.961 14.214C67.949 14.058 67.943 13.86 67.943 13.62C67.943 13.368 67.949 13.164 67.961 13.008C68.009 12.156 68.207 11.412 68.555 10.776C68.903 10.128 69.377 9.62998 69.977 9.28198C70.589 8.93398 71.303 8.75998 72.119 8.75998C73.031 8.75998 73.793 8.95198 74.405 9.33598C75.029 9.71998 75.503 10.266 75.827 10.974C76.151 11.682 76.313 12.51 76.313 13.458V13.764C76.313 13.896 76.271 13.998 76.187 14.07C76.115 14.142 76.019 14.178 75.899 14.178H69.671C69.671 14.19 69.671 14.214 69.671 14.25C69.671 14.286 69.671 14.316 69.671 14.34C69.695 14.832 69.803 15.294 69.995 15.726C70.187 16.146 70.463 16.488 70.823 16.752C71.183 17.016 71.615 17.148 72.119 17.148C72.551 17.148 72.911 17.082 73.199 16.95C73.487 16.818 73.721 16.674 73.901 16.518C74.081 16.35 74.201 16.224 74.261 16.14C74.369 15.984 74.453 15.894 74.513 15.87C74.573 15.834 74.669 15.816 74.801 15.816H75.665C75.785 15.816 75.881 15.852 75.953 15.924C76.037 15.984 76.073 16.074 76.061 16.194C76.049 16.374 75.953 16.596 75.773 16.86C75.593 17.112 75.335 17.364 74.999 17.616C74.663 17.868 74.255 18.078 73.775 18.246C73.295 18.402 72.743 18.48 72.119 18.48ZM69.671 12.936H74.603V12.882C74.603 12.342 74.501 11.862 74.297 11.442C74.105 11.022 73.823 10.692 73.451 10.452C73.079 10.2 72.635 10.074 72.119 10.074C71.603 10.074 71.159 10.2 70.787 10.452C70.427 10.692 70.151 11.022 69.959 11.442C69.767 11.862 69.671 12.342 69.671 12.882V12.936Z" fill="#151515"/>
<path d="M64.448 18.3C64.328 18.3 64.226 18.264 64.142 18.192C64.07 18.108 64.034 18.006 64.034 17.886V5.93399C64.034 5.81399 64.07 5.71799 64.142 5.64599C64.226 5.56199 64.328 5.51999 64.448 5.51999H65.294C65.426 5.51999 65.528 5.56199 65.6 5.64599C65.672 5.71799 65.708 5.81399 65.708 5.93399V17.886C65.708 18.006 65.672 18.108 65.6 18.192C65.528 18.264 65.426 18.3 65.294 18.3H64.448Z" fill="#151515"/>
<path d="M58.0802 18.48C57.4082 18.48 56.8322 18.396 56.3522 18.228C55.8722 18.06 55.4822 17.856 55.1822 17.616C54.8822 17.376 54.6542 17.136 54.4982 16.896C54.3542 16.656 54.2762 16.464 54.2642 16.32C54.2522 16.188 54.2942 16.086 54.3902 16.014C54.4862 15.942 54.5822 15.906 54.6782 15.906H55.4702C55.5422 15.906 55.5962 15.918 55.6322 15.942C55.6802 15.954 55.7402 16.002 55.8122 16.086C55.9682 16.254 56.1422 16.422 56.3342 16.59C56.5262 16.758 56.7602 16.896 57.0362 17.004C57.3242 17.112 57.6782 17.166 58.0982 17.166C58.7102 17.166 59.2142 17.052 59.6102 16.824C60.0062 16.584 60.2042 16.236 60.2042 15.78C60.2042 15.48 60.1202 15.24 59.9522 15.06C59.7962 14.88 59.5082 14.718 59.0882 14.574C58.6802 14.43 58.1162 14.28 57.3962 14.124C56.6762 13.956 56.1062 13.752 55.6862 13.512C55.2662 13.26 54.9662 12.966 54.7862 12.63C54.6062 12.282 54.5162 11.892 54.5162 11.46C54.5162 11.016 54.6482 10.59 54.9122 10.182C55.1762 9.76198 55.5602 9.41998 56.0642 9.15598C56.5802 8.89198 57.2222 8.75998 57.9902 8.75998C58.6142 8.75998 59.1482 8.83798 59.5922 8.99398C60.0362 9.14998 60.4022 9.34798 60.6902 9.58798C60.9782 9.81598 61.1942 10.044 61.3382 10.272C61.4822 10.5 61.5602 10.692 61.5722 10.848C61.5842 10.968 61.5482 11.07 61.4642 11.154C61.3802 11.226 61.2842 11.262 61.1762 11.262H60.4202C60.3362 11.262 60.2642 11.244 60.2042 11.208C60.1562 11.172 60.1082 11.13 60.0602 11.082C59.9402 10.926 59.7962 10.77 59.6282 10.614C59.4722 10.458 59.2622 10.332 58.9982 10.236C58.7462 10.128 58.4102 10.074 57.9902 10.074C57.3902 10.074 56.9402 10.2 56.6402 10.452C56.3402 10.704 56.1902 11.022 56.1902 11.406C56.1902 11.634 56.2562 11.838 56.3882 12.018C56.5202 12.198 56.7722 12.36 57.1442 12.504C57.5162 12.648 58.0682 12.804 58.8002 12.972C59.5922 13.128 60.2162 13.338 60.6722 13.602C61.1282 13.866 61.4522 14.172 61.6442 14.52C61.8362 14.868 61.9322 15.27 61.9322 15.726C61.9322 16.23 61.7822 16.692 61.4822 17.112C61.1942 17.532 60.7622 17.868 60.1862 18.12C59.6222 18.36 58.9202 18.48 58.0802 18.48Z" fill="#151515"/>
<path d="M47.5186 18.48C46.9186 18.48 46.3726 18.36 45.8806 18.12C45.3886 17.88 44.9926 17.556 44.6926 17.148C44.3926 16.74 44.2426 16.278 44.2426 15.762C44.2426 14.934 44.5786 14.274 45.2506 13.782C45.9226 13.29 46.7986 12.966 47.8786 12.81L50.5606 12.432V11.91C50.5606 11.334 50.3926 10.884 50.0566 10.56C49.7326 10.236 49.1986 10.074 48.4546 10.074C47.9146 10.074 47.4766 10.182 47.1406 10.398C46.8166 10.614 46.5886 10.89 46.4566 11.226C46.3846 11.406 46.2586 11.496 46.0786 11.496H45.2686C45.1366 11.496 45.0346 11.46 44.9626 11.388C44.9026 11.304 44.8726 11.208 44.8726 11.1C44.8726 10.92 44.9386 10.698 45.0706 10.434C45.2146 10.17 45.4306 9.91198 45.7186 9.65998C46.0066 9.40798 46.3726 9.19798 46.8166 9.02998C47.2726 8.84998 47.8246 8.75998 48.4726 8.75998C49.1926 8.75998 49.7986 8.85598 50.2906 9.04798C50.7826 9.22798 51.1666 9.47398 51.4426 9.78598C51.7306 10.098 51.9346 10.452 52.0546 10.848C52.1866 11.244 52.2526 11.646 52.2526 12.054V17.886C52.2526 18.006 52.2106 18.108 52.1266 18.192C52.0546 18.264 51.9586 18.3 51.8386 18.3H51.0106C50.8786 18.3 50.7766 18.264 50.7046 18.192C50.6326 18.108 50.5966 18.006 50.5966 17.886V17.112C50.4406 17.328 50.2306 17.544 49.9666 17.76C49.7026 17.964 49.3726 18.138 48.9766 18.282C48.5806 18.414 48.0946 18.48 47.5186 18.48ZM47.8966 17.13C48.3886 17.13 48.8386 17.028 49.2466 16.824C49.6546 16.608 49.9726 16.278 50.2006 15.834C50.4406 15.39 50.5606 14.832 50.5606 14.16V13.656L48.4726 13.962C47.6206 14.082 46.9786 14.286 46.5466 14.574C46.1146 14.85 45.8986 15.204 45.8986 15.636C45.8986 15.972 45.9946 16.254 46.1866 16.482C46.3906 16.698 46.6426 16.86 46.9426 16.968C47.2546 17.076 47.5726 17.13 47.8966 17.13Z" fill="#151515"/>
<path d="M35.414 18.3C35.282 18.3 35.18 18.264 35.108 18.192C35.036 18.108 35 18.006 35 17.886V6.11398C35 5.99398 35.036 5.89798 35.108 5.82598C35.18 5.74198 35.282 5.69998 35.414 5.69998H36.368C36.488 5.69998 36.584 5.74198 36.656 5.82598C36.728 5.89798 36.764 5.99398 36.764 6.11398V16.734H42.758C42.89 16.734 42.992 16.776 43.064 16.86C43.136 16.932 43.172 17.034 43.172 17.166V17.886C43.172 18.006 43.136 18.108 43.064 18.192C42.992 18.264 42.89 18.3 42.758 18.3H35.414Z" fill="#151515"/>
</svg>
